<svg viewBox="0 0 16 16" xmlns="http://www.w3.org/2000/svg">
  <path fill="#FFFFFF" d="M8 0C3.58 0 0 3.58 0 8C0 11.54 2.29 14.53 5.47 15.59C5.87 15.66 6.02 15.42 6.02 15.21C6.02 15.02 6.01 14.39 6.01 13.72C4.93 14.09 4.46 13.5 4.27 13.14C4.19 12.95 3.84 12.47 3.55 12.28C3.24 12.08 2.82 11.71 3.52 11.7C4.21 11.69 4.57 12.42 4.7 12.73C4.87 13.16 5.31 12.95 5.4 12.82C6.24 11.61 7.36 11.2 8 11.03C8.64 11.2 9.76 11.61 10.6 12.82C10.69 12.95 11.13 13.16 11.3 12.73C11.43 12.42 11.79 11.69 12.48 11.7C13.18 11.71 12.76 12.08 12.45 12.28C12.16 12.47 11.81 12.95 11.73 13.14C11.54 13.5 11.07 14.09 9.99 13.72C9.99 14.39 9.98 15.02 9.98 15.21C9.98 15.42 10.13 15.66 10.53 15.59C13.71 14.53 16 11.53 16 8C16 3.58 12.42 0 8 0Z"/>
</svg>
